<?xml version="1.0" encoding="utf-8"?>
<!-- Generator: Adobe Illustrator 19.0.0, SVG Export Plug-In . SVG Version: 6.00 Build 0)  -->
<svg version="1.1" id="Layer_1" xmlns="http://www.w3.org/2000/svg" xmlns:xlink="http://www.w3.org/1999/xlink" x="0px" y="0px"
	 viewBox="-583 408.9 24 24" style="enable-background:new -583 408.9 24 24;" xml:space="preserve">
<style type="text/css">
	.st0{fill:#D32B27;stroke:#D4DE25;stroke-miterlimit:10;}
	.st1{fill:none;stroke:#D4DE25;stroke-miterlimit:10;}
	.st2{fill:none;stroke:#4984C4;stroke-miterlimit:10;}
	.st3{fill:#66BC46;}
</style>
<line class="st0" x1="-574.8" y1="435.6" x2="-556.1" y2="416.9"/>
<line class="st1" x1="-590.2" y1="427.4" x2="-565.8" y2="403"/>
<line class="st2" x1="-583.8" y1="433.6" x2="-557.1" y2="406.9"/>
<g>
	<polygon class="st3" points="-576.5,427.8 -573.2,431.9 -577.2,428.5 	"/>
</g>
<g>
	<polygon class="st3" points="-572.8,424.4 -569.5,428.4 -573.5,425.1 	"/>
</g>
<g>
	<polygon class="st3" points="-569.7,421.1 -566.3,425.2 -570.4,421.8 	"/>
</g>
<g>
	<polygon class="st3" points="-566.6,417.9 -563.2,422 -567.3,418.6 	"/>
</g>
<g>
	<polygon class="st3" points="-564.2,415.5 -560.8,419.5 -564.9,416.2 	"/>
</g>
<g>
	<polygon class="st3" points="-578.9,426.5 -582.3,422.5 -578.2,425.8 	"/>
</g>
<g>
	<polygon class="st3" points="-575.4,423.3 -578.7,419.2 -574.7,422.6 	"/>
</g>
<g>
	<polygon class="st3" points="-572.2,420.3 -575.5,416.2 -571.4,419.6 	"/>
</g>
<g>
	<polygon class="st3" points="-566.9,414.4 -570.3,410.4 -566.2,413.7 	"/>
</g>
<g>
	<polygon class="st3" points="-569.4,417 -572.7,413 -568.7,416.3 	"/>
</g>
</svg>
